<svg xmlns="http://www.w3.org/2000/svg" width="1200" height="1500" viewBox="0 0 1200 1500">
    <rect width="1200" height="1500" fill="#0d0d0d"/>
    <path d="M80 750 L80 839.1773790572873 L120 864.1267819554184 L160 869.3426274441928 L200 853.9230484541326 L240 820.5342302750968 L280 774.9494028981311 L320 725.0505971018689 L360 679.4657697249032 L400 646.0769515458674 L440 630.6573725558072 L480 635.8732180445816 L520 660.8226209427128 L560 701.191602830904 L600 750 L640 798.808397169096 L680 839.1773790572872 L720 864.1267819554184 L760 869.3426274441928 L800 853.9230484541326 L840 820.5342302750968 L880 774.9494028981313 L920 725.0505971018688 L960 679.4657697249032 L1000 646.0769515458674 L1040 630.6573725558072 L1080 635.8732180445816 L1120 660.8226209427127" fill="none" stroke="#ffffff" stroke-opacity="0.25" stroke-width="2"/><path d="M80 750 L80 846.4576853097306 L120 827.3886863344255 L160 794.9384804377543 L200 754.7180030201171 L240 713.6817400185898 L280 678.9252341088823 L320 656.4582009157265 L360 650.1653945848079 L400 661.1348984990932 L440 687.469985776988 L480 724.6170805813872 L520 766.1531127498481 L560 804.8961249774378 L600 834.1470984807896 L640 848.8482742044221 L680 846.4576853097306 L720 827.3886863344255 L760 794.9384804377544 L800 754.7180030201172 L840 713.6817400185898 L880 678.9252341088824 L920 656.4582009157264 L960 650.1653945848079 L1000 661.1348984990933 L1040 687.4699857769881 L1080 724.6170805813871 L1120 766.1531127498481" fill="none" stroke="#ffffff" stroke-opacity="0.085" stroke-width="1.5"/><path d="M80 750 L80 773.9345096282898 L120 740.8167357757418 L160 709.2868317349044 L200 684.7966043546243 L240 671.5806364356829 L280 671.9240888945646 L320 685.7675756809612 L360 710.7174321653752 L400 742.4596014993211 L440 775.5055742364043 L480 804.1414014771456 L520 823.4156885432972 L560 829.9957360997204 L600 822.7437941460546 L640 802.9137893279128 L680 773.9345096282898 L720 740.8167357757418 L760 709.2868317349045 L800 684.7966043546244 L840 671.5806364356829 L880 671.9240888945646 L920 685.7675756809612 L960 710.7174321653752 L1000 742.4596014993213 L1040 775.5055742364044 L1080 804.1414014771456 L1120 823.4156885432972" fill="none" stroke="#ffffff" stroke-opacity="0.07" stroke-width="1.5"/><path d="M80 750 L80 711.5231949271439 L120 696.1241799457 L160 690.0407836981044 L200 694.3248806614861 L240 708.2357115510774 L280 729.3679673301367 L320 754.0676889939479 L360 778.0640702769111 L400 797.2079188549219 L440 808.1890893924376 L480 809.1088377427194 L520 799.808131060352 L560 781.8951460249845 L600 758.467200483592 L640 733.5751990564851 L680 711.5231949271439 L720 696.1241799457 L760 690.0407836981044 L800 694.3248806614861 L840 708.2357115510774 L880 729.3679673301366 L920 754.067688993948 L960 778.0640702769111 L1000 797.2079188549219 L1040 808.1890893924376 L1080 809.1088377427194 L1120 799.808131060352" fill="none" stroke="#ffffff" stroke-opacity="0.05500000000000001" stroke-width="1.5"/><path d="M80 750 L80 710.3139365147844 L120 715.7793257042955 L160 727.1617803646001 L200 742.4931706785773 L240 759.1225599796319 L280 774.1745757843524 L320 785.0465878168321 L360 789.8587264275266 L400 787.7789291337399 L440 779.166811781933 L480 765.5114877008632 L520 749.1740864788724 L560 732.9794932078732 L600 719.7279001876828 L640 711.7106282384352 L680 710.3139365147844 L720 715.7793257042955 L760 727.1617803646001 L800 742.4931706785773 L840 759.1225599796319 L880 774.1745757843524 L920 785.0465878168321 L960 789.8587264275266 L1000 787.7789291337399 L1040 779.1668117819329 L1080 765.5114877008632 L1120 749.1740864788724" fill="none" stroke="#ffffff" stroke-opacity="0.04000000000000001" stroke-width="1.5"/>
    <text x="80" y="1410" font-family="monospace" font-size="26" letter-spacing="4" fill="#ffffff" fill-opacity="0.7">SHORT-FORM MOTION</text>
    <text x="1120" y="1410" text-anchor="end" font-family="monospace" font-size="20" fill="#ffffff" fill-opacity="0.4">PLACEHOLDER</text>
    <text x="80" y="120" font-family="monospace" font-size="20" fill="#ffffff" fill-opacity="0.4">YASH KAUL</text>
  </svg>