<svg xmlns="http://www.w3.org/2000/svg" width="1200" height="1500" viewBox="0 0 1200 1500">
    <rect width="1200" height="1500" fill="#0f0f0f"/>
    <rect x="80" y="200" width="1040" height="2" fill="#ffffff" fill-opacity="0.04"/><rect x="80" y="246" width="1040" height="2" fill="#ffffff" fill-opacity="0.09"/><rect x="80" y="292" width="1040" height="2" fill="#ffffff" fill-opacity="0.14"/><rect x="80" y="338" width="1040" height="2" fill="#ffffff" fill-opacity="0.04"/><rect x="80" y="384" width="1040" height="2" fill="#ffffff" fill-opacity="0.09"/><rect x="80" y="430" width="1040" height="2" fill="#ffffff" fill-opacity="0.14"/><rect x="80" y="476" width="1040" height="2" fill="#ffffff" fill-opacity="0.04"/><rect x="80" y="522" width="1040" height="2" fill="#ffffff" fill-opacity="0.09"/><rect x="80" y="568" width="1040" height="2" fill="#ffffff" fill-opacity="0.14"/><rect x="80" y="614" width="1040" height="2" fill="#ffffff" fill-opacity="0.04"/><rect x="80" y="660" width="1040" height="2" fill="#ffffff" fill-opacity="0.09"/><rect x="80" y="706" width="1040" height="2" fill="#ffffff" fill-opacity="0.14"/><rect x="80" y="752" width="1040" height="2" fill="#ffffff" fill-opacity="0.04"/><rect x="80" y="798" width="1040" height="2" fill="#ffffff" fill-opacity="0.09"/><rect x="80" y="844" width="1040" height="2" fill="#ffffff" fill-opacity="0.14"/><rect x="80" y="890" width="1040" height="2" fill="#ffffff" fill-opacity="0.04"/><rect x="80" y="936" width="1040" height="2" fill="#ffffff" fill-opacity="0.09"/><rect x="80" y="982" width="1040" height="2" fill="#ffffff" fill-opacity="0.14"/><rect x="80" y="1028" width="1040" height="2" fill="#ffffff" fill-opacity="0.04"/><rect x="80" y="1074" width="1040" height="2" fill="#ffffff" fill-opacity="0.09"/><rect x="80" y="1120" width="1040" height="2" fill="#ffffff" fill-opacity="0.14"/><rect x="80" y="1166" width="1040" height="2" fill="#ffffff" fill-opacity="0.04"/><rect x="80" y="1212" width="1040" height="2" fill="#ffffff" fill-opacity="0.09"/><rect x="80" y="1258" width="1040" height="2" fill="#ffffff" fill-opacity="0.14"/>
    <text x="80" y="1410" font-family="monospace" font-size="26" letter-spacing="4" fill="#ffffff" fill-opacity="0.7">CHARY — IDENTITY</text>
    <text x="1120" y="1410" text-anchor="end" font-family="monospace" font-size="20" fill="#ffffff" fill-opacity="0.4">PLACEHOLDER</text>
    <text x="80" y="120" font-family="monospace" font-size="20" fill="#ffffff" fill-opacity="0.4">YASH KAUL</text>
  </svg>