<svg xmlns="http://www.w3.org/2000/svg" width="1200" height="1500" viewBox="0 0 1200 1500">
    <rect width="1200" height="1500" fill="#080808"/>
    <line x1="80" y1="200" x2="80" y2="1300" stroke="#ffffff" stroke-opacity="0.1"/><line x1="257" y1="200" x2="257" y2="1300" stroke="#ffffff" stroke-opacity="0.1"/><line x1="434" y1="200" x2="434" y2="1300" stroke="#ffffff" stroke-opacity="0.1"/><line x1="611" y1="200" x2="611" y2="1300" stroke="#ffffff" stroke-opacity="0.1"/><line x1="788" y1="200" x2="788" y2="1300" stroke="#ffffff" stroke-opacity="0.1"/><line x1="965" y1="200" x2="965" y2="1300" stroke="#ffffff" stroke-opacity="0.1"/><line x1="1142" y1="200" x2="1142" y2="1300" stroke="#ffffff" stroke-opacity="0.1"/><line x1="80" y1="200" x2="1120" y2="200" stroke="#ffffff" stroke-opacity="0.1"/><line x1="80" y1="337" x2="1120" y2="337" stroke="#ffffff" stroke-opacity="0.1"/><line x1="80" y1="474" x2="1120" y2="474" stroke="#ffffff" stroke-opacity="0.1"/><line x1="80" y1="611" x2="1120" y2="611" stroke="#ffffff" stroke-opacity="0.1"/><line x1="80" y1="748" x2="1120" y2="748" stroke="#ffffff" stroke-opacity="0.1"/><line x1="80" y1="885" x2="1120" y2="885" stroke="#ffffff" stroke-opacity="0.1"/><line x1="80" y1="1022" x2="1120" y2="1022" stroke="#ffffff" stroke-opacity="0.1"/><line x1="80" y1="1159" x2="1120" y2="1159" stroke="#ffffff" stroke-opacity="0.1"/><line x1="80" y1="1296" x2="1120" y2="1296" stroke="#ffffff" stroke-opacity="0.1"/>
    <text x="80" y="1410" font-family="monospace" font-size="26" letter-spacing="4" fill="#ffffff" fill-opacity="0.7">BIKRAM DOSANJH</text>
    <text x="1120" y="1410" text-anchor="end" font-family="monospace" font-size="20" fill="#ffffff" fill-opacity="0.4">PLACEHOLDER</text>
    <text x="80" y="120" font-family="monospace" font-size="20" fill="#ffffff" fill-opacity="0.4">YASH KAUL</text>
  </svg>